<svg width="49" height="49" viewBox="0 0 49 49" fill="none" xmlns="http://www.w3.org/2000/svg">
<path d="M8.62988 6.43994H15.6299C16.1148 6.43996 16.4946 6.59107 16.8037 6.88232C17.1301 7.18954 17.3695 7.60183 17.5078 8.14404V8.14502L18.8506 14.2202C18.9253 14.7382 18.9114 15.1784 18.8232 15.5493C18.7385 15.9058 18.5652 16.2077 18.2969 16.4634L18.6416 16.8257L18.2959 16.4634L18.29 16.4692L13.2539 21.436L12.9746 21.7114L13.1748 22.0483C14.0188 23.4666 14.9148 24.7935 15.8623 26.0288C16.809 27.2632 17.8608 28.4376 19.0156 29.5522V29.5532C20.2334 30.8126 21.5061 31.9535 22.833 32.9751C24.1617 33.9981 25.5493 34.8922 26.9951 35.6577L27.3252 35.8325L27.5869 35.5649L32.3965 30.6294L32.4062 30.6196C32.6989 30.3019 33.0188 30.0834 33.3672 29.9526L33.5176 29.9019C33.9436 29.7755 34.3691 29.7543 34.8008 29.8374L40.4746 31.0933C40.9436 31.2228 41.3201 31.4423 41.6172 31.7495L41.7393 31.8872C42.0487 32.2609 42.2031 32.6885 42.2031 33.1909V40.0132C42.2031 40.6124 42.0059 41.0854 41.6182 41.4692C41.2276 41.8558 40.7547 42.0502 40.166 42.0503C36.3332 42.0503 32.4209 41.1291 28.4258 39.2729C24.4314 37.4172 20.7217 34.7798 17.2979 31.356C13.8744 27.9325 11.2357 24.2216 9.37598 20.2231C7.51559 16.2236 6.59277 12.3134 6.59277 8.48877C6.59281 7.96469 6.74225 7.5341 7.03906 7.17432L7.17578 7.0249C7.5625 6.63606 8.03572 6.43994 8.62988 6.43994ZM9.02344 9.38037C9.08372 10.7695 9.30222 12.2334 9.67578 13.77C10.0509 15.3128 10.6408 17.0248 11.4414 18.9038L11.7314 19.5825L12.2539 19.062L16.292 15.0454L16.4854 14.853L16.4287 14.5864L15.291 9.25439L15.2061 8.85889H9.00098L9.02344 9.38037ZM39.7842 33.4126L39.3857 33.3296L34.415 32.3013L34.1426 32.2456L33.9512 32.4458L30.0254 36.5601L29.5439 37.0649L30.1768 37.3589C31.5351 37.9908 33.011 38.5059 34.6025 38.9048C36.1954 39.3039 37.7477 39.5422 39.2588 39.6187L39.7842 39.645V33.4126Z" fill="#0C0B04" stroke="#0C0B04"/>
</svg>
