<svg width="34" height="41" viewBox="0 0 34 41" fill="none" xmlns="http://www.w3.org/2000/svg">
<path d="M17.0586 1.43994C21.2374 1.43994 24.9138 2.89936 28.1074 5.8374C31.2724 8.74881 32.8701 12.6561 32.8701 17.6147C32.8701 19.6613 32.4186 21.7006 31.5078 23.7358C30.5857 25.7966 29.4285 27.7697 28.0371 29.6538C26.6399 31.5458 25.1217 33.3117 23.4824 34.9517C21.8309 36.6042 20.2888 38.0676 18.8574 39.3423L18.8467 39.353C18.6111 39.5759 18.3386 39.7374 18.0244 39.8394C17.6857 39.9492 17.3586 40.0015 17.043 40.0015C16.7277 40.0014 16.4077 39.949 16.0811 39.8403C15.7779 39.7395 15.5156 39.5793 15.2891 39.3579L15.2803 39.3501L15.2705 39.3413C13.8316 38.067 12.2869 36.6038 10.6357 34.9517C8.99632 33.3116 7.47745 31.546 6.08008 29.6538C4.68879 27.7699 3.53429 25.7972 2.61621 23.7368C1.70916 21.7014 1.25977 19.6617 1.25977 17.6147C1.25981 12.6558 2.85555 8.74876 6.0166 5.8374C9.20608 2.89958 12.8799 1.43998 17.0586 1.43994ZM17.0586 3.85889C13.3159 3.85889 10.1352 5.1455 7.54883 7.71729C4.95399 10.2975 3.66606 13.6113 3.66602 17.6147C3.66602 20.3164 4.79773 23.2977 6.97754 26.5444C9.15793 29.7919 12.4093 33.4205 16.7178 37.4282L17.0547 37.7407L17.3945 37.4321C21.8041 33.4318 25.0855 29.8032 27.2188 26.5464V26.5454C29.3478 23.2946 30.4512 20.313 30.4512 17.6147C30.4511 13.6113 29.1632 10.2975 26.5684 7.71729C23.9814 5.1457 20.8011 3.85896 17.0586 3.85889ZM17.0547 14.1558C17.9186 14.1559 18.64 14.4537 19.248 15.0591C19.8553 15.6637 20.1543 16.3831 20.1543 17.2466C20.1543 18.1106 19.8565 18.8304 19.252 19.4341C18.6476 20.0374 17.9276 20.3344 17.0635 20.3345C16.3066 20.3345 15.6604 20.108 15.1064 19.6489L14.875 19.438C14.2723 18.8376 13.9756 18.1197 13.9756 17.2554C13.9756 16.4984 14.2023 15.8508 14.6621 15.2935L14.873 15.0601C15.4736 14.4538 16.1914 14.1558 17.0547 14.1558Z" fill="#0C0B04" stroke="#0C0B04"/>
</svg>
