<svg width="42" height="34" viewBox="0 0 42 34" fill="none" xmlns="http://www.w3.org/2000/svg">
<path d="M3.83301 1.43994H37.6182C38.4032 1.43994 39.0782 1.72203 39.666 2.31006V2.31104C40.2541 2.8989 40.5371 3.57379 40.5371 4.35889V30.1431C40.5371 30.8266 40.321 31.4268 39.873 31.9585L39.667 32.1821C39.0792 32.7681 38.4039 33.0503 37.6182 33.0503H3.83301C3.05138 33.0502 2.37944 32.7688 1.79395 32.1831C1.20808 31.5975 0.926758 30.9248 0.926758 30.1431V4.35889L0.94043 4.06885C1.00235 3.40541 1.28137 2.82425 1.79395 2.31006H1.79492C2.38056 1.72214 3.05194 1.44 3.83301 1.43994ZM3.33301 4.46436V30.6431H38.1182V6.45557L37.3438 6.96631L21.3955 17.4653C21.2589 17.5372 21.1348 17.595 21.0225 17.6392C20.9555 17.6655 20.8599 17.686 20.7256 17.686C20.5912 17.686 20.4957 17.6655 20.4287 17.6392C20.3153 17.5945 20.1899 17.5362 20.0518 17.4634L4.33301 7.11377V5.11963L20.4521 15.6763L20.7256 15.856L20.999 15.6772L37.6914 4.77686L39.0986 3.85889H2.40723L3.33301 4.46436Z" fill="#0C0B04" stroke="#0C0B04"/>
</svg>
