<svg width="25" height="19" viewBox="0 0 25 19" fill="none" xmlns="http://www.w3.org/2000/svg">
<path d="M10.8774 18.686C10.5657 18.686 10.3044 18.5681 10.0937 18.3324C9.88294 18.0968 9.77756 17.8024 9.77756 17.449C9.77756 17.0958 9.88326 16.7997 10.0947 16.5605C10.3061 16.3216 10.567 16.2021 10.8774 16.2021H14.1298C14.4392 16.2021 14.6986 16.3238 14.9081 16.5671C15.1173 16.8103 15.2219 17.1087 15.2219 17.4621C15.2219 17.8153 15.1162 18.1075 14.9048 18.3389C14.6934 18.5703 14.4325 18.686 14.1221 18.686H10.8774ZM5.67232 10.7334C5.35995 10.7334 5.09979 10.6155 4.89183 10.3797C4.68387 10.1442 4.57989 9.84948 4.57989 9.49559C4.57989 9.14195 4.68387 8.84724 4.89183 8.61148C5.09979 8.37571 5.35995 8.25783 5.67232 8.25783H19.3197C19.6313 8.25783 19.8925 8.3779 20.1035 8.61804C20.3142 8.85794 20.4196 9.15471 20.4196 9.50835C20.4196 9.86224 20.3142 10.1549 20.1035 10.3863C19.8925 10.6177 19.6313 10.7334 19.3197 10.7334H5.67232ZM1.77407 2.78908C1.4617 2.78908 1.20154 2.66962 0.993578 2.4307C0.78562 2.19177 0.681641 1.89561 0.681641 1.54221C0.681641 1.18905 0.787342 0.894586 0.998745 0.658822C1.21015 0.423058 1.47117 0.305176 1.78182 0.305176H23.2254C23.5371 0.305176 23.7984 0.425245 24.0091 0.665384C24.2201 0.90528 24.3256 1.20181 24.3256 1.55497C24.3256 1.90837 24.2184 2.20247 24.004 2.43726C23.7898 2.67181 23.5277 2.78908 23.2177 2.78908H1.77407Z" fill="white"/>
</svg>
