<svg width="26" height="18" viewBox="0 0 26 18" fill="none" xmlns="http://www.w3.org/2000/svg">
<path d="M1.92845 17.4067C1.606 17.4067 1.33745 17.2969 1.12278 17.0773C0.908115 16.858 0.800781 16.5869 0.800781 16.264C0.800781 15.9409 0.908115 15.672 1.12278 15.4573C1.33745 15.2429 1.606 15.1357 1.92845 15.1357H7.96811C8.28989 15.1357 8.55967 15.2453 8.77745 15.4647C8.995 15.684 9.10378 15.9567 9.10378 16.2827C9.10378 16.6089 8.995 16.8778 8.77745 17.0893C8.55967 17.3009 8.28989 17.4067 7.96811 17.4067H1.92845ZM1.92845 10.1357C1.606 10.1357 1.33745 10.0259 1.12278 9.80632C0.908115 9.58699 0.800781 9.31588 0.800781 8.99299C0.800781 8.66988 0.908115 8.40099 1.12278 8.18632C1.33745 7.97165 1.606 7.86432 1.92845 7.86432H16.0161C16.3379 7.86432 16.6076 7.97565 16.8251 8.19832C17.0427 8.42076 17.1514 8.69343 17.1514 9.01632C17.1514 9.33943 17.0427 9.60676 16.8251 9.81832C16.6076 10.0299 16.3379 10.1357 16.0161 10.1357H1.92845ZM1.92845 2.86432C1.606 2.86432 1.33745 2.75465 1.12278 2.53532C0.908115 2.31599 0.800781 2.04465 0.800781 1.72132C0.800781 1.39776 0.909892 1.13021 1.12811 0.918652C1.34634 0.707097 1.61578 0.601318 1.93645 0.601318H24.0718C24.3936 0.601318 24.6632 0.710985 24.8808 0.930318C25.0986 1.14987 25.2074 1.42132 25.2074 1.74465C25.2074 2.06821 25.0968 2.33576 24.8754 2.54732C24.6543 2.75865 24.3838 2.86432 24.0638 2.86432H1.92845Z" fill="white"/>
</svg>
