<svg width="36" height="41" viewBox="0 0 36 41" fill="none" xmlns="http://www.w3.org/2000/svg">
<path d="M20.2483 35.763L18.2128 35.751C13.4141 35.6553 9.33342 33.8903 5.97076 30.456C2.60809 27.0217 0.926758 22.9012 0.926758 18.0945C0.926758 13.2162 2.65826 9.05585 6.12126 5.61351C9.58426 2.17118 13.7716 0.450012 18.6833 0.450012C21.1056 0.450012 23.3511 0.887011 25.4198 1.76101C27.4881 2.63468 29.2903 3.85618 30.8263 5.42551C32.3619 6.99485 33.5668 8.84701 34.4408 10.982C35.3148 13.1173 35.7518 15.4462 35.7518 17.9685C35.7518 22.4628 34.5646 26.6318 32.1903 30.4755C29.8159 34.3195 26.7818 37.4805 23.0878 39.9585C22.8224 40.1412 22.5384 40.2305 22.2358 40.2265C21.9334 40.2225 21.6496 40.1587 21.3843 40.035C21.1193 39.919 20.9058 39.7367 20.7438 39.488C20.5818 39.2393 20.4881 38.9618 20.4628 38.6555L20.2483 35.763ZM23.5833 35.4685C26.3166 33.1685 28.4583 30.4582 30.0083 27.3375C31.5583 24.2168 32.3333 21.0938 32.3333 17.9685C32.3333 13.8352 31.0416 10.4518 28.4583 7.81851C25.8749 5.18518 22.6166 3.86851 18.6833 3.86851C14.6833 3.86851 11.2916 5.25818 8.50826 8.03751C5.72492 10.8168 4.33326 14.1772 4.33326 18.1185C4.33326 22.0518 5.72492 25.4102 8.50826 28.1935C11.2916 30.9768 14.6499 32.3685 18.5833 32.3685H23.5833V35.4685ZM18.6953 29.802C19.2606 29.802 19.7384 29.6068 20.1288 29.2165C20.5194 28.8258 20.7148 28.3478 20.7148 27.7825C20.7148 27.2252 20.5194 26.7513 20.1288 26.361C19.7384 25.9703 19.2606 25.775 18.6953 25.775C18.1299 25.775 17.6521 25.9703 17.2618 26.361C16.8711 26.7513 16.6758 27.2252 16.6758 27.7825C16.6758 28.3478 16.8711 28.8258 17.2618 29.2165C17.6521 29.6068 18.1299 29.802 18.6953 29.802ZM13.7973 13.2045C14.1546 13.3458 14.5056 13.3458 14.8503 13.2045C15.1946 13.0632 15.4994 12.8305 15.7648 12.5065C16.0488 12.0892 16.4411 11.7615 16.9418 11.5235C17.4428 11.2855 18.0646 11.1665 18.8073 11.1665C19.6179 11.1665 20.3238 11.3898 20.9248 11.8365C21.5254 12.2832 21.8258 12.9032 21.8258 13.6965C21.8258 14.3222 21.6488 14.962 21.2948 15.616C20.9408 16.2697 20.3464 17.014 19.5118 17.849C18.7528 18.6157 18.1904 19.2987 17.8248 19.898C17.4588 20.497 17.2758 21.022 17.2758 21.473C17.2758 21.8633 17.3941 22.2018 17.6308 22.4885C17.8671 22.7752 18.1806 22.9185 18.5713 22.9185C18.9539 22.9185 19.2783 22.7998 19.5443 22.5625C19.8103 22.3252 19.9884 22.0232 20.0788 21.6565C20.2028 21.2978 20.3944 20.9058 20.6538 20.4805C20.9134 20.0552 21.3146 19.5672 21.8573 19.0165C22.8716 17.9858 23.5808 17.0602 23.9848 16.2395C24.3888 15.4188 24.5908 14.5633 24.5908 13.673C24.5908 12.0823 24.0388 10.8123 22.9348 9.86301C21.8308 8.91368 20.4748 8.43901 18.8668 8.43901C17.8764 8.43901 16.8423 8.66401 15.7643 9.11401C14.6863 9.56401 13.9013 10.2477 13.4093 11.165C13.1776 11.5717 13.0931 11.9778 13.1558 12.3835C13.2184 12.7895 13.4323 13.0632 13.7973 13.2045Z" fill="#412023"/>
</svg>
