<svg width="42" height="40" viewBox="0 0 42 40" fill="none" xmlns="http://www.w3.org/2000/svg">
<path d="M5.91075 39.55L5.58675 37.0285C5.36008 36.9108 5.15075 36.802 4.95875 36.702C4.76675 36.602 4.55942 36.4735 4.33675 36.3165L1.96525 37.302L0.03125 33.9465L2.05325 32.449V30.999L0.03125 29.451L1.96525 26.0955L4.33675 27.0815C4.83675 26.7482 5.13675 26.5565 5.23675 26.5065L5.58675 26.3315L5.91075 23.848H9.76625L10.0903 26.3815C10.1996 26.4402 10.2688 26.4707 10.2978 26.473C10.3268 26.475 10.3633 26.4935 10.4073 26.5285C10.4516 26.5632 10.5354 26.6155 10.6588 26.6855C10.7818 26.7552 11.0089 26.8872 11.3403 27.0815L13.7118 26.0955L15.6458 29.451L13.6358 30.949C13.6944 31.2237 13.7091 31.5443 13.6798 31.911C13.6504 32.2777 13.5858 32.5237 13.4858 32.649C13.5444 32.7077 13.5924 32.737 13.6298 32.737C13.6671 32.737 13.7191 32.7623 13.7858 32.813L26.5458 26.227L24.6098 29.749L24.6933 29.8205L15.1718 34.7065L13.7118 37.302L11.3403 36.3165C10.8323 36.6165 10.5283 36.7998 10.4283 36.8665C10.3283 36.9332 10.2156 36.9998 10.0903 37.0665L9.76625 39.55H5.91075ZM7.83225 28.251C6.89125 28.251 6.08142 28.5903 5.40275 29.269C4.72408 29.9477 4.38475 30.7577 4.38475 31.699C4.38475 32.6483 4.72408 33.4623 5.40275 34.141C6.08142 34.8193 6.89125 35.1585 7.83225 35.1585C8.78158 35.1585 9.59558 34.8193 10.2743 34.141C10.9529 33.4623 11.2923 32.6483 11.2923 31.699C11.2923 30.7577 10.9529 29.9477 10.2743 29.269C9.59558 28.5903 8.78158 28.251 7.83225 28.251ZM16.6858 16.14L16.4118 13.6685C16.2198 13.5432 16.0278 13.4242 15.8358 13.3115C15.6438 13.1988 15.4518 13.0758 15.2598 12.9425L15.1598 12.9925V26.9545L14.0718 25.0285L12.8163 25.588V13.4565L10.8563 10.549L12.8163 9.03901V7.58901L10.8063 6.05351L12.7403 2.69801L15.1118 3.68351C15.6358 3.33451 15.9458 3.13501 16.0418 3.08501C16.1378 3.03501 16.2444 2.98451 16.3618 2.93351L16.6858 0.450012H20.5413L20.8653 2.97151C21.0839 3.08918 21.2913 3.19801 21.4873 3.29801C21.6833 3.39801 21.8926 3.52651 22.1153 3.68351L24.4868 2.69801L26.4208 6.05351L24.3988 7.55101V8.98901L26.4208 10.549L24.4868 13.8925L22.1153 12.9185C21.6153 13.2185 21.3153 13.3998 21.2153 13.4625C21.1153 13.5252 20.9986 13.5938 20.8653 13.6685L20.5413 16.14H16.6858ZM18.6193 4.84151C17.6703 4.84151 16.8564 5.18068 16.1778 5.85901C15.4991 6.53768 15.1598 7.34768 15.1598 8.28901C15.1598 9.23835 15.4991 10.0523 16.1778 10.731C16.8564 11.4097 17.6703 11.749 18.6193 11.749C19.5606 11.749 20.3706 11.4097 21.0493 10.731C21.7279 10.0523 22.0673 9.23835 22.0673 8.28901C22.0673 7.34768 21.7279 6.53768 21.0493 5.85901C20.3706 5.18068 19.5606 4.84151 18.6193 4.84151ZM31.5683 39.55L31.2563 37.0285C31.0296 36.9108 30.8202 36.802 30.6282 36.702C30.4362 36.602 30.2289 36.4735 30.0063 36.3165L27.6347 37.302L25.6888 33.9465L27.6988 32.449V30.999L25.6888 29.501L27.6347 26.0955L30.0063 27.0815C30.2063 26.8815 30.3829 26.7295 30.5363 26.6255C30.6896 26.5215 30.8178 26.4482 30.9208 26.4055L31.0708 25.8055L19.2248 16.9835H21.2608L21.4348 15.702L32.3782 23.848H35.4358L35.7478 26.3815C35.8651 26.4402 35.9363 26.4707 35.9613 26.473C35.9863 26.475 36.0229 26.4935 36.0713 26.5285C36.1193 26.5632 36.2029 26.6155 36.3223 26.6855C36.4413 26.7552 36.6664 26.8872 36.9978 27.0815L39.3693 26.1075L41.3033 29.451L39.2933 30.949V32.399L41.3033 33.9465L39.3693 37.302L36.9978 36.3165C36.4978 36.6165 36.1978 36.7998 36.0978 36.8665C35.9978 36.9332 35.8811 36.9998 35.7478 37.0665L35.4358 39.55H31.5683ZM33.5023 28.251C32.5529 28.251 31.7389 28.5903 31.0603 29.269C30.3816 29.9477 30.0423 30.7577 30.0423 31.699C30.0423 32.6483 30.3816 33.4623 31.0603 34.141C31.7389 34.8193 32.5529 35.1585 33.5023 35.1585C34.4433 35.1585 35.2531 34.8193 35.9318 34.141C36.6104 33.4623 36.9498 32.6483 36.9498 31.699C36.9498 30.7577 36.6104 29.9477 35.9318 29.269C35.2531 28.5903 34.4433 28.251 33.5023 28.251Z" fill="#412023"/>
</svg>
