<svg width="40" height="37" viewBox="0 0 40 37" fill="none" xmlns="http://www.w3.org/2000/svg">
<path d="M3.90108 32.8925V9.83899L0.558575 2.62849C0.368242 2.20583 0.347576 1.76866 0.496576 1.31699C0.645909 0.864994 0.935909 0.543826 1.36658 0.353493C1.81724 0.121493 2.27608 0.0919921 2.74308 0.264992C3.20974 0.437992 3.54258 0.753324 3.74158 1.21099L7.57258 9.83899H32.4946L36.3086 1.19899C36.5186 0.754325 36.8467 0.446159 37.2931 0.274492C37.7391 0.103159 38.1899 0.129493 38.6456 0.353493C39.0662 0.545826 39.3601 0.875826 39.5271 1.34349C39.6937 1.81083 39.6819 2.25583 39.4916 2.67849L36.1611 9.83899V32.8925C36.1611 33.8375 35.8284 34.6415 35.1631 35.3045C34.4977 35.9675 33.6909 36.299 32.7426 36.299H7.30758C6.36258 36.299 5.55858 35.9675 4.89558 35.3045C4.23258 34.6415 3.90108 33.8375 3.90108 32.8925ZM15.8001 21.2215H24.3001C24.7521 21.2215 25.1271 21.0718 25.4251 20.7725C25.7227 20.4728 25.8716 20.0957 25.8716 19.641C25.8716 19.1867 25.7227 18.8127 25.4251 18.519C25.1271 18.2253 24.7521 18.0785 24.3001 18.0785H15.8001C15.3481 18.0785 14.9731 18.2282 14.6751 18.5275C14.3774 18.8272 14.2286 19.2043 14.2286 19.659C14.2286 20.1133 14.3774 20.4873 14.6751 20.781C14.9731 21.0747 15.3481 21.2215 15.8001 21.2215ZM7.30758 32.8925H32.7426V13.2575H7.30758V32.8925Z" fill="#412023"/>
</svg>
