<svg width="44" height="42" viewBox="0 0 44 42" fill="none" xmlns="http://www.w3.org/2000/svg">
<path d="M18.5059 8.22856C17.4622 8.22856 16.5702 7.85823 15.8299 7.11756C15.0892 6.3769 14.7189 5.48673 14.7189 4.44706C14.7189 3.40706 15.0874 2.51473 15.8244 1.77007C16.561 1.02573 17.4512 0.653564 18.4949 0.653564C19.5385 0.653564 20.4305 1.0244 21.1709 1.76606C21.9115 2.50773 22.2819 3.3994 22.2819 4.44106C22.2819 5.4794 21.9134 6.37023 21.1764 7.11357C20.4397 7.8569 19.5495 8.22856 18.5059 8.22856ZM31.6819 33.5361C33.1622 33.5361 34.4167 33.0249 35.4454 32.0026C36.474 30.9806 36.9884 29.7294 36.9884 28.2491C36.9884 26.7687 36.4774 25.5142 35.4554 24.4856C34.433 23.4569 33.1817 22.9426 31.7014 22.9426C30.221 22.9426 28.9665 23.4536 27.9379 24.4756C26.9092 25.4979 26.3949 26.7491 26.3949 28.2291C26.3949 29.7094 26.906 30.9641 27.9284 31.9931C28.9504 33.0217 30.2015 33.5361 31.6819 33.5361ZM36.5059 35.4521C35.7725 35.9324 35.0044 36.3009 34.2014 36.5576C33.3987 36.8142 32.5622 36.9426 31.6919 36.9426C29.2742 36.9426 27.2192 36.0962 25.5269 34.4036C23.8345 32.7109 22.9884 30.6556 22.9884 28.2376C22.9884 25.8196 23.8347 23.7647 25.5274 22.0731C27.22 20.3817 29.2754 19.5361 31.6934 19.5361C34.1114 19.5361 36.1662 20.3822 37.8579 22.0746C39.5492 23.7669 40.3949 25.8217 40.3949 28.2391C40.3949 29.1174 40.2675 29.9561 40.0129 30.7551C39.7582 31.5541 39.3889 32.3202 38.9049 33.0536L43.0854 37.2456C43.425 37.5856 43.5949 37.9834 43.5949 38.4391C43.5949 38.8951 43.425 39.2929 43.0854 39.6326C42.7454 39.9726 42.3475 40.1426 41.8919 40.1426C41.4359 40.1426 41.038 39.9726 40.6984 39.6326L36.5059 35.4521ZM20.7429 32.4816C21.0972 33.3946 21.547 34.2374 22.0924 35.0101C22.6377 35.7824 23.2795 36.4681 24.0179 37.0671V39.9546C24.0179 40.2839 23.9075 40.5564 23.6869 40.7721C23.4665 40.9877 23.1935 41.0956 22.8679 41.0956H22.3654C21.9007 41.0956 21.514 40.9392 21.2054 40.6266C20.897 40.3139 20.7429 39.9264 20.7429 39.4641V32.4816ZM16.2579 28.0001V39.4641C16.2579 39.9264 16.1002 40.3139 15.7849 40.6266C15.4692 40.9392 15.0782 41.0956 14.6119 41.0956C14.1455 41.0956 13.7594 40.9392 13.4534 40.6266C13.1477 40.3139 12.9949 39.9264 12.9949 39.4641V14.5036C11.1442 14.3462 9.31553 14.1614 7.50886 13.9491C5.70186 13.7371 3.89503 13.4346 2.08836 13.0416C1.62303 12.9336 1.26586 12.6886 1.01686 12.3066C0.76753 11.9246 0.698863 11.5011 0.810863 11.0361C0.922863 10.5707 1.1962 10.2281 1.63086 10.0081C2.06586 9.7884 2.53353 9.7324 3.03386 9.84006C5.58486 10.3657 8.1507 10.7369 10.7314 10.9536C13.3124 11.1702 15.902 11.2786 18.5004 11.2786C21.1014 11.2786 23.6937 11.1702 26.2774 10.9536C28.8607 10.7369 31.4317 10.3657 33.9904 9.84006C34.489 9.7324 34.9647 9.7884 35.4174 10.0081C35.8697 10.2281 36.1499 10.5707 36.2579 11.0361C36.3659 11.5011 36.2692 11.9314 35.9679 12.3271C35.6662 12.7227 35.2684 12.9736 34.7744 13.0796C32.99 13.4402 31.2034 13.7289 29.4144 13.9456C27.6257 14.1622 25.8269 14.3489 24.0179 14.5056V19.4121C22.7952 20.4867 21.82 21.7816 21.0924 23.2966C20.3644 24.8119 19.9964 26.4396 19.9884 28.1796C19.9884 28.1476 19.9864 28.1176 19.9824 28.0896C19.9784 28.0619 19.9764 28.0321 19.9764 28.0001H16.2579Z" fill="white"/>
</svg>
