<svg width="12" height="20" viewBox="0 0 12 20" fill="none" xmlns="http://www.w3.org/2000/svg">
<path d="M9.02355 10.2008L1.2203 2.39753C1.01697 2.1942 0.914384 1.94111 0.91255 1.63828C0.91055 1.33545 1.01113 1.07603 1.2143 0.86003C1.4343 0.64003 1.69672 0.530029 2.00155 0.530029C2.30638 0.530029 2.5668 0.64003 2.7828 0.86003L10.942 9.00728C11.1121 9.17728 11.2353 9.36586 11.3118 9.57303C11.3885 9.78036 11.4268 9.98961 11.4268 10.2008C11.4268 10.4119 11.3885 10.6212 11.3118 10.8285C11.2353 11.0357 11.1121 11.2243 10.942 11.3943L2.7638 19.5725C2.5438 19.7925 2.28655 19.8984 1.99205 19.89C1.69755 19.8817 1.4403 19.7675 1.2203 19.5475C1.01697 19.3275 0.911133 19.0703 0.9028 18.7758C0.894467 18.4813 1.0003 18.224 1.2203 18.004L9.02355 10.2008Z" fill="white"/>
</svg>
