<svg width="11" height="20" viewBox="0 0 11 20" fill="none" xmlns="http://www.w3.org/2000/svg">
<path d="M2.74763 10.2506L10.5509 18.0539C10.75 18.2572 10.8506 18.5113 10.8526 18.8161C10.8546 19.121 10.754 19.3834 10.5509 19.6034C10.3309 19.8194 10.0685 19.9274 9.76363 19.9274C9.4588 19.9274 9.19838 19.8194 8.98238 19.6034L0.823129 11.4441C0.653129 11.2741 0.529879 11.0855 0.453379 10.8784C0.376712 10.671 0.338379 10.4618 0.338379 10.2506C0.338379 10.0395 0.376712 9.83021 0.453379 9.62288C0.529879 9.41571 0.653129 9.22713 0.823129 9.05713L9.00738 0.878879C9.22338 0.658879 9.47863 0.552129 9.77313 0.558629C10.0676 0.564963 10.3269 0.678046 10.5509 0.89788C10.75 1.11788 10.8538 1.37613 10.8621 1.67263C10.8705 1.96913 10.7667 2.22738 10.5509 2.44738L2.74763 10.2506Z" fill="white"/>
</svg>
