<svg width="16" height="10" viewBox="0 0 16 10" fill="none" xmlns="http://www.w3.org/2000/svg">
<path d="M8 1.60596C8.12506 1.60596 8.22528 1.64379 8.33203 1.75049L14.9248 8.34229C15.034 8.45151 15.0693 8.55021 15.0693 8.6665C15.0693 8.78281 15.0339 8.88151 14.9248 8.99072C14.8208 9.09477 14.7183 9.13516 14.584 9.13525C14.4494 9.13525 14.3464 9.09489 14.2422 8.99072L14.2412 8.98975L8.4707 3.25146L7.99902 2.78271L1.75781 9.02393C1.65416 9.12758 1.56552 9.15674 1.45801 9.15283C1.33232 9.14823 1.22412 9.10546 1.10938 8.99072C1.00523 8.88656 0.964844 8.78443 0.964844 8.6499C0.964857 8.51539 1.00522 8.41323 1.10938 8.30908L7.66797 1.75049C7.77473 1.64373 7.87496 1.60599 8 1.60596Z" fill="white" stroke="white" stroke-width="1.33333"/>
</svg>
