<svg width="46" height="46" viewBox="0 0 46 46" fill="none" xmlns="http://www.w3.org/2000/svg">
<path d="M22.9885 45.2751C19.2551 45.2751 15.6551 44.1871 12.1885 42.0111C8.72179 39.8348 5.97645 37.3459 3.95245 34.5446V39.6436C3.95245 40.1089 3.79695 40.4971 3.48595 40.8081C3.17462 41.1194 2.78629 41.2751 2.32095 41.2751C1.85595 41.2751 1.46779 41.1194 1.15645 40.8081C0.84512 40.4971 0.689453 40.1089 0.689453 39.6436V30.5716C0.689453 30.0826 0.85112 29.6766 1.17445 29.3536C1.49745 29.0303 1.90362 28.8686 2.39295 28.8686H11.4645C11.9298 28.8686 12.3181 29.0243 12.6295 29.3356C12.9405 29.6466 13.096 30.0348 13.096 30.5001C13.096 30.9654 12.9405 31.3536 12.6295 31.6646C12.3181 31.9759 11.9298 32.1316 11.4645 32.1316H6.24595C7.94595 34.6583 10.3611 36.9348 13.4915 38.9611C16.6215 40.9871 19.7871 42.0001 22.9885 42.0001C27.9408 42.0001 32.2253 40.3406 35.842 37.0216C39.4586 33.7029 41.4908 29.6056 41.9385 24.7296C41.9718 24.2643 42.1461 23.8716 42.4615 23.5516C42.7765 23.2316 43.1666 23.0716 43.632 23.0716C44.064 23.0716 44.4438 23.2193 44.7715 23.5146C45.0995 23.8099 45.2468 24.1736 45.2135 24.6056C44.9895 27.5043 44.2573 30.2114 43.017 32.7271C41.7763 35.2431 40.1586 37.4301 38.164 39.2881C36.1693 41.1461 33.8705 42.6084 31.2675 43.6751C28.6641 44.7418 25.9045 45.2751 22.9885 45.2751ZM23.0005 4.0001C18.0481 4.0001 13.7636 5.6596 10.147 8.9786C6.53029 12.2973 4.50212 16.3946 4.06245 21.2706C4.02112 21.7359 3.84279 22.1286 3.52745 22.4486C3.21245 22.7686 2.82229 22.9286 2.35695 22.9286C1.91695 22.9286 1.53712 22.7729 1.21745 22.4616C0.897453 22.1503 0.75412 21.7748 0.787453 21.3351C1.00345 18.4604 1.73162 15.7691 2.97195 13.2611C4.21262 10.7531 5.82629 8.5721 7.81295 6.7181C9.79962 4.8641 12.0966 3.40176 14.704 2.3311C17.311 1.26043 20.0765 0.725098 23.0005 0.725098C26.7338 0.725098 30.3378 1.8151 33.8125 3.9951C37.2871 6.1751 40.0285 8.66193 42.0365 11.4556V6.3566C42.0365 5.88326 42.192 5.4931 42.503 5.1861C42.8143 4.87876 43.2066 4.7251 43.68 4.7251C44.153 4.7251 44.5431 4.87876 44.8505 5.1861C45.1578 5.4931 45.3115 5.88326 45.3115 6.3566V15.4286C45.3115 15.9176 45.1498 16.3236 44.8265 16.6466C44.5035 16.9699 44.0973 17.1316 43.608 17.1316H34.5365C34.0711 17.1316 33.6828 16.9759 33.3715 16.6646C33.0605 16.3536 32.905 15.9654 32.905 15.5001C32.905 15.0348 33.0605 14.6466 33.3715 14.3356C33.6828 14.0243 34.0711 13.8686 34.5365 13.8686H39.755C38.031 11.3179 35.6063 9.03543 32.481 7.0211C29.3556 5.0071 26.1955 4.0001 23.0005 4.0001ZM22.8025 34.7001C23.3598 34.7001 23.8338 34.5048 24.2245 34.1141C24.6151 33.7238 24.8105 33.2539 24.8105 32.7046C24.8105 32.1473 24.6151 31.6773 24.2245 31.2946C23.8338 30.9119 23.3598 30.7206 22.8025 30.7206C22.2535 30.7206 21.7856 30.9139 21.399 31.3006C21.0123 31.6873 20.819 32.1553 20.819 32.7046C20.819 33.2616 21.0123 33.7334 21.399 34.1201C21.7856 34.5068 22.2535 34.7001 22.8025 34.7001ZM26.3605 22.5501C27.3965 21.5058 28.1411 20.5508 28.5945 19.6851C29.0478 18.8191 29.2745 17.9034 29.2745 16.9381C29.2745 15.2048 28.6785 13.8111 27.4865 12.7571C26.2945 11.7031 24.8025 11.1761 23.0105 11.1761C21.6198 11.1761 20.3728 11.4508 19.2695 12.0001C18.1661 12.5494 17.2731 13.3654 16.5905 14.4481C16.3415 14.8304 16.2876 15.2273 16.429 15.6386C16.57 16.0499 16.8398 16.3389 17.2385 16.5056C17.6291 16.6803 18.0365 16.6866 18.4605 16.5246C18.8841 16.3626 19.2453 16.1109 19.544 15.7696C19.9946 15.2856 20.51 14.9099 21.09 14.6426C21.6703 14.3753 22.2985 14.2416 22.9745 14.2416C23.8851 14.2416 24.654 14.4943 25.281 14.9996C25.9076 15.5049 26.221 16.1964 26.221 17.0741C26.221 17.7248 26.0296 18.3564 25.647 18.9691C25.2646 19.5818 24.68 20.2689 23.893 21.0306C22.9183 21.9546 22.2373 22.7503 21.85 23.4176C21.4626 24.0849 21.219 24.8353 21.119 25.6686C21.0523 26.1006 21.177 26.4764 21.493 26.7961C21.809 27.1161 22.1788 27.2761 22.6025 27.2761C23.0345 27.2761 23.3938 27.1264 23.6805 26.8271C23.9671 26.5281 24.1723 26.1666 24.296 25.7426C24.4293 25.1743 24.6586 24.6461 24.984 24.1581C25.3093 23.6701 25.7681 23.1341 26.3605 22.5501Z" fill="white"/>
</svg>
