<svg width="69" height="68" viewBox="0 0 69 68" fill="none" xmlns="http://www.w3.org/2000/svg">
<path d="M57.9715 31.3876C55.8332 31.3876 53.5565 30.787 51.1415 29.5859C48.726 28.3848 46.4702 26.7139 44.374 24.5734C42.2913 22.4323 40.6463 20.1564 39.439 17.7459C38.2318 15.3353 37.6282 13.1017 37.6282 11.0451C37.6282 10.0512 37.7738 9.14338 38.0649 8.32172C38.356 7.50005 38.7907 6.79477 39.369 6.20588C40.8174 4.73033 43.7299 3.45088 48.1065 2.36755C52.4838 1.28422 56.6365 0.806163 60.5649 0.933386C61.9782 0.975608 63.2032 1.13144 64.2399 1.40088C65.2765 1.67033 66.0302 2.04033 66.5007 2.51089C66.9313 2.94089 67.2668 3.61839 67.5074 4.54339C67.7479 5.46839 67.9121 6.602 67.9999 7.94422C68.211 11.8859 67.7921 16.1159 66.7432 20.6342C65.6943 25.152 64.4402 28.1406 62.9807 29.6001C62.4074 30.1678 61.6757 30.6078 60.7857 30.9201C59.8952 31.2317 58.9571 31.3876 57.9715 31.3876ZM61.3349 19.0526C61.766 17.3281 62.0915 15.4289 62.3115 13.3551C62.5315 11.2806 62.6715 8.98283 62.7315 6.46172C60.1315 6.35672 57.7502 6.412 55.5874 6.62755C53.4252 6.84311 51.4052 7.222 49.5274 7.76422C50.7652 8.51588 51.9468 9.31339 53.0724 10.1567C54.1979 11.0006 55.2552 11.8445 56.244 12.6884C57.4318 13.7728 58.4449 14.8401 59.2832 15.8901C60.1221 16.9406 60.806 17.9948 61.3349 19.0526ZM58.7682 25.9334C58.4793 24.2239 57.8621 22.6381 56.9165 21.1759C55.971 19.7131 54.5246 18.1128 52.5774 16.3751C50.6174 14.6373 48.8857 13.2817 47.3824 12.3084C45.8785 11.3345 44.4943 10.6823 43.2299 10.3517C43.381 12.1028 43.926 13.9417 44.8649 15.8684C45.8038 17.7956 46.9265 19.4126 48.2332 20.7192C49.8471 22.3459 51.4852 23.5764 53.1474 24.4109C54.8102 25.2459 56.6838 25.7534 58.7682 25.9334ZM49.5382 41.0926H18.5957C17.8179 41.0926 17.0743 40.937 16.3649 40.6259C15.6554 40.3148 15.0385 39.9039 14.514 39.3934L1.0507 25.9492C0.49737 25.3959 0.220703 24.7495 0.220703 24.0101C0.220703 23.2706 0.49737 22.6176 1.0507 22.0509C1.60404 21.4976 2.25376 21.2209 2.99987 21.2209C3.74598 21.2209 4.3957 21.4976 4.94904 22.0509L18.4615 35.5542H49.404C50.1818 35.5542 50.9254 35.7131 51.6349 36.0309C52.3443 36.3487 52.9613 36.7628 53.4857 37.2734L66.949 50.7176C67.5024 51.2709 67.779 51.9173 67.779 52.6567C67.779 53.3962 67.5024 54.0492 66.949 54.6159C66.3957 55.1692 65.746 55.4459 64.9999 55.4459C64.2538 55.4459 63.604 55.1692 63.0507 54.6159L49.5382 41.0926ZM24.159 67.8784C23.3446 67.8784 22.6646 67.6056 22.119 67.0601C21.5735 66.5145 21.3007 65.8345 21.3007 65.0201V54.7442C21.3007 53.1837 21.8552 51.8473 22.964 50.7351C24.0729 49.6228 25.4177 49.0667 26.9982 49.0667H41.0015C42.5821 49.0667 43.9268 49.6228 45.0357 50.7351C46.1446 51.8473 46.699 53.1837 46.699 54.7442V65.0201C46.699 65.8345 46.4263 66.5145 45.8807 67.0601C45.3352 67.6056 44.6618 67.8784 43.8607 67.8784H24.159ZM26.839 62.3409H41.1607V54.6051H26.839V62.3409Z" fill="white"/>
</svg>
