<svg width="24" height="24" viewBox="0 0 24 24" fill="none" xmlns="http://www.w3.org/2000/svg">
<path d="M9.1123 1.34229C11.2337 1.34229 13.0216 2.08344 14.5039 3.57568C15.9875 5.06908 16.7236 6.85941 16.7236 8.97412C16.7236 9.82314 16.5906 10.6322 16.3252 11.4038C16.0601 12.1741 15.6608 12.9008 15.125 13.5835L14.8506 13.9331L15.167 14.2466L22.6846 21.7026L22.6865 21.7046C22.7992 21.815 22.8554 21.9424 22.8555 22.1206C22.8555 22.2996 22.7988 22.4322 22.6826 22.5483L22.6807 22.5503C22.5608 22.6713 22.4272 22.728 22.25 22.728C22.0736 22.728 21.9521 22.6718 21.8477 22.5601L21.8418 22.5542L21.835 22.5483L14.3486 15.0688L14.0234 14.7437L13.6719 15.0415C13.1732 15.4648 12.5974 15.8101 11.9404 16.0747L11.6533 16.1831C10.8808 16.4577 10.0504 16.5962 9.15918 16.5962C7.00071 16.5961 5.19208 15.8533 3.70215 14.3618C2.21014 12.868 1.46973 11.0798 1.46973 8.96924C1.46978 6.85895 2.21033 5.07043 3.7041 3.57666C5.19715 2.08341 6.99069 1.34234 9.1123 1.34229ZM9.13086 2.47119C7.32328 2.47119 5.77114 3.10904 4.50391 4.37549C3.2382 5.64074 2.59869 7.1813 2.59863 8.96924C2.59863 10.757 3.2371 12.2977 4.50195 13.563C5.76854 14.8298 7.32184 15.4673 9.13086 15.4673C10.9242 15.4672 12.4616 14.8286 13.7139 13.561C14.9643 12.2953 15.5947 10.7553 15.5947 8.96924C15.5947 7.1832 14.9642 5.64314 13.7129 4.37744C12.4601 3.11006 10.9228 2.47124 9.13086 2.47119Z" fill="white" stroke="white"/>
</svg>
