<svg width="21" height="20" viewBox="0 0 21 20" fill="none" xmlns="http://www.w3.org/2000/svg">
<path d="M9.85506 1.16898C10.1988 0.352525 11.3696 0.352526 11.7133 1.16899L13.7421 5.98787C13.8871 6.33207 14.2147 6.56725 14.5908 6.59704L19.8568 7.01412C20.7491 7.08479 21.1108 8.18477 20.4311 8.76004L16.419 12.1553C16.1324 12.3979 16.0072 12.7784 16.0947 13.141L17.3205 18.2176C17.5282 19.0778 16.5811 19.7576 15.8172 19.2968L11.3087 16.5762C10.9867 16.3819 10.5817 16.3819 10.2597 16.5762L5.75117 19.2968C4.98729 19.7576 4.04014 19.0778 4.24781 18.2176L5.4736 13.141C5.56116 12.7784 5.436 12.3979 5.14944 12.1553L1.13724 8.76004C0.457462 8.18477 0.819248 7.08479 1.71147 7.01412L6.97753 6.59704C7.35368 6.56725 7.68133 6.33207 7.82625 5.98787L9.85506 1.16898Z" fill="#43282B"/>
</svg>
